<svg xmlns="http://www.w3.org/2000/svg" width="38.164" height="40.015" viewBox="0 0 38.164 40.015">
  <g id="Group_20" data-name="Group 20" transform="translate(-1084.5 -3190.682)">
    <path id="Path_66303" data-name="Path 66303" d="M16.013,215.289h-6.1A10.041,10.041,0,0,1,0,205.15v-5.79a4.868,4.868,0,0,1,4.815-4.909h.358a1.022,1.022,0,1,1,0,2.044H4.815a2.822,2.822,0,0,0-2.77,2.865v5.79a8,8,0,0,0,7.873,8.095h6.1a1.022,1.022,0,0,1,0,2.044" transform="translate(1085 3012.63)" fill="#fff" stroke="#fff" stroke-width="1"/>
    <path id="Path_66304" data-name="Path 66304" d="M56.014,27.083a1.02,1.02,0,0,1-.817-.407A16.66,16.66,0,0,1,68.509,0,16.666,16.666,0,0,1,84.351,11.491a1.022,1.022,0,0,1-1.943.634A14.617,14.617,0,1,0,56.829,25.446a1.022,1.022,0,0,1-.816,1.637" transform="translate(1037.39 3191.182)" fill="#fff" stroke="#fff" stroke-width="1"/>
    <path id="Path_66305" data-name="Path 66305" d="M202.112,398.624h-4.7a3.056,3.056,0,0,1-3.052-3.052v-.889a3.056,3.056,0,0,1,3.052-3.052h4.7a3.056,3.056,0,0,1,3.052,3.052v.889a3.056,3.056,0,0,1-3.052,3.052m-4.7-4.949a1.009,1.009,0,0,0-1.008,1.008v.889a1.009,1.009,0,0,0,1.008,1.008h4.7a1.009,1.009,0,0,0,1.008-1.008v-.889a1.009,1.009,0,0,0-1.008-1.008Z" transform="translate(906.53 2831.573)" fill="#fff" stroke="#fff" stroke-width="1"/>
    <path id="Path_66306" data-name="Path 66306" d="M384.262,140.794h-2.815a1.649,1.649,0,0,1-1.647-1.647v-4.17a1.649,1.649,0,0,1,1.647-1.647h2.815a1.649,1.649,0,0,1,1.647,1.647v4.17a1.649,1.649,0,0,1-1.647,1.647m-2.418-2.044h2.021v-3.375h-2.021Z" transform="translate(736.255 3068.753)" fill="#fff" stroke="#fff" stroke-width="1"/>
  </g>
</svg>
