<?xml version="1.0" encoding="UTF-8"?>
<svg id="Layer_1" data-name="Layer 1" xmlns="http://www.w3.org/2000/svg" version="1.1" xmlns:xlink="http://www.w3.org/1999/xlink" viewBox="0 0 40 40">
  <defs>
    <style>
      .cls-1 {
        fill: #23772d;
      }

      .cls-1, .cls-2 {
        stroke-width: 0px;
      }

      .cls-2 {
        fill: none;
      }

      .cls-3 {
        clip-path: url(#clippath);
      }
    </style>
    <clipPath id="clippath">
      <rect class="cls-2" y="0" width="40" height="40"/>
    </clipPath>
  </defs>
  <g class="cls-3">
    <path class="cls-1" d="M27.5,35c-.4,0-.8-.1-1.3-.2-1.6-.3-3.2-.9-4.7-1.6-2.4-1.2-4.7-2.7-6.7-4.4-4.1-3.5-7.3-7.9-9.1-13-.5-1.3-.7-2.6-.7-4,0-1.3.5-2.5,1.4-3.4.8-.8,1.6-1.7,2.5-2.5,1.1-1.2,2.9-1.2,4.1-.1,0,0,.1.1.2.2,1.4,1.3,2.7,2.7,4,4.1,1.1,1.1,1.1,2.8,0,3.8-.7.8-1.5,1.6-2.3,2.3-.1.1-.2.3,0,.4.8,1.6,1.9,3,3.1,4.3,1.2,1.3,2.6,2.5,4.1,3.5.4.3.8.5,1.3.7.1,0,.3,0,.4,0,0,0,0,0,0,0,.7-.7,1.3-1.3,2-2,.5-.5,1.1-.9,1.8-1,.9-.2,1.9.2,2.5.8,1.3,1.3,2.5,2.5,3.8,3.8,1.3,1,1.5,2.8.5,4.1,0,0-.2.2-.2.3-.9,1-1.8,1.9-2.8,2.8-.7.6-1.6,1-2.5,1.1,0,0-.1,0-.2,0h-1.2ZM6.5,11.9c0,1.4.3,2.8.9,4,1.4,3.5,3.5,6.7,6.1,9.4,2.5,2.7,5.5,4.9,8.8,6.5,1.6.9,3.4,1.4,5.2,1.7,1.1.2,2.2,0,3-.8.9-.8,1.7-1.7,2.5-2.6.6-.5.6-1.4.1-2,0,0-.1-.1-.2-.2-1.3-1.3-2.6-2.7-4-4-.5-.5-1.3-.5-1.8,0-.1.1-.3.2-.4.4-.7.7-1.5,1.5-2.2,2.2-.4.5-1.1.6-1.6.3-.4-.2-.9-.4-1.3-.7-1.9-1.2-3.6-2.6-5.1-4.3-1.3-1.3-2.4-2.9-3.2-4.6-.4-.6-.3-1.5.3-1.9,0,0,0,0,0,0,.8-.7,1.5-1.5,2.2-2.2.5-.5.6-1.3.1-1.8,0,0-.1-.1-.2-.2-1-1-1.9-2-2.9-3-.4-.4-.7-.7-1.1-1.1-.5-.5-1.4-.5-1.9,0-.1,0-.2.2-.4.3-.7.7-1.4,1.4-2,2-.8.7-1.2,1.7-1.1,2.7"/>
  </g>
</svg>