<svg xmlns="http://www.w3.org/2000/svg" xmlns:xlink="http://www.w3.org/1999/xlink" width="40" height="40" viewBox="0 0 40 40"><defs><clipPath id="a"><rect width="40" height="40" transform="translate(-18889 -8037)"/></clipPath></defs><g transform="translate(18889 8037)" clip-path="url(#a)"><g transform="translate(-18882.887 -8029.707)"><g transform="translate(-1.113 -2.281)"><path d="M22.458,30c-.423-.068-.847-.127-1.267-.205a18.2,18.2,0,0,1-4.658-1.646A30.108,30.108,0,0,1,9.8,23.7,30.837,30.837,0,0,1,.688,10.746,11.13,11.13,0,0,1,0,6.792,4.813,4.813,0,0,1,1.392,3.385C2.216,2.551,3.016,1.686,3.9.919A2.883,2.883,0,0,1,8.178.984C9.565,2.29,10.9,3.65,12.211,5.036a2.716,2.716,0,0,1,.019,3.839c-.733.81-1.529,1.565-2.311,2.331a.323.323,0,0,0-.078.447,17.282,17.282,0,0,0,3.124,4.293,21.456,21.456,0,0,0,4.142,3.483c.4.256.84.46,1.252.7a.272.272,0,0,0,.4-.056c.651-.662,1.311-1.316,1.971-1.969a3.388,3.388,0,0,1,1.83-1.042,2.827,2.827,0,0,1,2.543.846q1.917,1.877,3.808,3.782a2.9,2.9,0,0,1,.213,4.346c-.871,1-1.834,1.923-2.8,2.833a4.268,4.268,0,0,1-2.492,1.074,1.335,1.335,0,0,0-.2.054ZM1.528,6.922a11.715,11.715,0,0,0,.861,4.049,28.845,28.845,0,0,0,6.08,9.372A29.69,29.69,0,0,0,17.222,26.8a15.453,15.453,0,0,0,5.2,1.651,3.606,3.606,0,0,0,3.041-.825c.869-.829,1.707-1.693,2.522-2.576a1.386,1.386,0,0,0-.033-2.131q-1.96-2-3.97-3.951a1.323,1.323,0,0,0-1.839-.07,4.252,4.252,0,0,0-.391.354c-.729.722-1.453,1.45-2.185,2.17a1.246,1.246,0,0,1-1.582.251c-.427-.216-.855-.434-1.265-.68a22.842,22.842,0,0,1-5.139-4.286A17.7,17.7,0,0,1,8.386,12.15,1.377,1.377,0,0,1,8.762,10.2c.761-.732,1.522-1.464,2.246-2.232a1.309,1.309,0,0,0-.014-2c-.959-1-1.95-1.975-2.932-2.956-.359-.359-.718-.721-1.1-1.058a1.374,1.374,0,0,0-1.9-.044,3.986,3.986,0,0,0-.351.311c-.681.674-1.351,1.359-2.039,2.025a3.51,3.51,0,0,0-1.15,2.676" transform="translate(0 -0.001)" fill="#fff"/></g></g></g></svg>