<svg xmlns="http://www.w3.org/2000/svg" width="37.164" height="37.398" viewBox="0 0 37.164 37.398">
  <path id="Path_66255" data-name="Path 66255" d="M33.087,10.293l.781-.761a1.392,1.392,0,0,0,.413-.836,1.309,1.309,0,0,0-.214-.887A17.719,17.719,0,0,0,24.122.664a18.6,18.6,0,0,0-12.42.918,19.584,19.584,0,0,0-9.341,8.571A19.09,19.09,0,0,0,.275,22.545,17.819,17.819,0,0,0,17.938,37.4h0a19.194,19.194,0,0,0,13.32-5.483A19.466,19.466,0,0,0,37.164,18.7H34.51A16.708,16.708,0,0,1,20.5,34.53,15.532,15.532,0,0,1,9.755,32.336a15.26,15.26,0,0,1-6.5-8.746,16.223,16.223,0,0,1,.865-11.1,16.8,16.8,0,0,1,7.813-8.119,16.005,16.005,0,0,1,11.009-1.24,15.2,15.2,0,0,1,8.263,5.339L15.767,23.488l-6.778-7.07L7.047,18.307l7.684,8.014a1.275,1.275,0,0,0,.924.391h0a1.368,1.368,0,0,0,.952-.391h0L33.086,10.294" transform="translate(0 0.001)" fill="#fff"/>
</svg>
