<svg xmlns="http://www.w3.org/2000/svg" xmlns:xlink="http://www.w3.org/1999/xlink" width="40" height="40" viewBox="0 0 40 40"><defs><clipPath id="a"><rect width="40" height="40" transform="translate(-18839 -8037)"/></clipPath></defs><g transform="translate(18839 8037)" clip-path="url(#a)"><g transform="translate(-18826.621 -8027.336)"><g transform="translate(-7.378 0.348)"><g transform="translate(0 0)"><path d="M30,18.725a4.6,4.6,0,0,1-.414.761A1.542,1.542,0,0,1,28.3,20q-4.745,0-9.49,0-8.538,0-17.076,0a1.719,1.719,0,0,1-1.174-.364A1.569,1.569,0,0,1,0,18.372q.006-2.928,0-5.855Q0,7.145,0,1.772A1.577,1.577,0,0,1,1.765,0H28.1A1.643,1.643,0,0,1,30,1.274Zm-1.993.105c-.076-.1-.124-.173-.178-.239l-5.805-7.166c-.19-.235-.389-.464-.565-.71a.539.539,0,0,1,.029-.7.544.544,0,0,1,.688-.135,1.273,1.273,0,0,1,.316.3q3.072,3.785,6.14,7.573c.051.063.11.118.186.2V1.913c-.116.082-.2.141-.288.2q-5.9,4.425-11.808,8.85a2.73,2.73,0,0,1-3.437,0L1.455,2.1c-.082-.061-.168-.117-.276-.191V17.966c.1-.118.172-.193.237-.273l5.363-6.62c.283-.349.562-.7.849-1.046a.555.555,0,0,1,.634-.184.493.493,0,0,1,.379.5,1,1,0,0,1-.216.52q-3.085,3.831-6.186,7.649c-.077.095-.148.193-.243.318ZM2.147,1.165c.126.1.2.162.273.219l11.567,8.674a1.581,1.581,0,0,0,2.024,0q5.808-4.353,11.613-8.708c.063-.047.12-.1.214-.186Z" transform="translate(0 0)" fill="#fff"/></g></g></g></g></svg>