<?xml version="1.0" standalone="no"?>
<!DOCTYPE svg PUBLIC "-//W3C//DTD SVG 20010904//EN"
 "http://www.w3.org/TR/2001/REC-SVG-20010904/DTD/svg10.dtd">
<svg version="1.0" xmlns="http://www.w3.org/2000/svg"
 width="512.000000pt" height="512.000000pt" viewBox="0 0 512.000000 512.000000"
 preserveAspectRatio="xMidYMid meet">
<metadata>
Created by potrace 1.16, written by Peter Selinger 2001-2019
</metadata>
<g transform="translate(0.000000,512.000000) scale(0.100000,-0.100000)"
fill="#000" stroke="none">
<path d="M2240 5105 c-462 -60 -856 -222 -1240 -509 -123 -91 -385 -354 -478
-478 -264 -353 -430 -742 -498 -1163 -25 -155 -30 -537 -10 -705 67 -548 307
-1056 688 -1455 395 -413 874 -668 1442 -767 174 -30 543 -37 727 -13 1102
138 1984 955 2204 2040 47 230 59 584 30 825 -144 1157 -1068 2081 -2225 2225
-150 18 -501 18 -640 0z m502 -240 c354 -20 774 -164 1085 -371 538 -360 899
-907 1014 -1542 27 -148 37 -489 19 -643 -60 -528 -298 -1017 -677 -1391 -374
-370 -841 -595 -1368 -658 -117 -15 -395 -14 -515 0 -769 92 -1440 557 -1795
1244 -110 212 -183 426 -227 669 -20 107 -23 155 -23 387 0 298 13 396 81 632
271 944 1112 1620 2089 1678 66 4 143 5 170 4 28 -2 94 -6 147 -9z"/>
<path d="M1255 3602 c-35 -11 -67 -33 -105 -72 -95 -94 -90 -38 -90 -970 0
-932 -5 -876 90 -970 97 -97 -19 -90 1410 -90 1430 0 1313 -8 1412 90 93 93
88 38 88 970 0 932 5 877 -88 970 -99 98 19 90 -1416 89 -1133 0 -1256 -2
-1301 -17z m2299 -241 c-50 -46 -986 -781 -994 -781 -8 0 -945 736 -994 781
-6 5 427 9 994 9 565 0 1000 -4 994 -9z m-1624 -612 c294 -234 546 -432 560
-442 32 -22 108 -22 140 0 23 16 1037 819 1138 901 l42 34 0 -730 c0 -651 -2
-732 -16 -746 -14 -14 -140 -16 -1234 -16 -1094 0 -1220 2 -1234 16 -14 14
-16 95 -16 746 l0 730 43 -34 c23 -19 283 -226 577 -459z"/>
</g>
</svg>
