<svg xmlns="http://www.w3.org/2000/svg" width="12.062" height="12.062" viewBox="0 0 12.062 12.062">
  <path id="iconmonstr-instagram-11_1_" data-name="iconmonstr-instagram-11 (1)" d="M6.031,1.087c1.61,0,1.8.006,2.438.035a2.266,2.266,0,0,1,2.472,2.472c.029.636.035.827.035,2.437s-.006,1.8-.035,2.437a2.266,2.266,0,0,1-2.472,2.472c-.636.029-.826.035-2.438.035s-1.8-.006-2.437-.035A2.266,2.266,0,0,1,1.122,8.468c-.029-.636-.035-.826-.035-2.437s.007-1.8.035-2.437A2.266,2.266,0,0,1,3.594,1.122c.636-.029.827-.035,2.437-.035ZM6.031,0C4.393,0,4.188.007,3.545.036A3.329,3.329,0,0,0,.037,3.544C.007,4.188,0,4.393,0,6.031S.007,7.874.036,8.518a3.329,3.329,0,0,0,3.508,3.508c.644.029.849.036,2.487.036s1.843-.007,2.487-.036a3.329,3.329,0,0,0,3.508-3.508c.03-.643.037-.849.037-2.487s-.007-1.843-.036-2.486A3.329,3.329,0,0,0,8.518.037C7.874.007,7.669,0,6.031,0Zm0,2.934a3.1,3.1,0,1,0,3.1,3.1A3.1,3.1,0,0,0,6.031,2.934Zm0,5.107a2.01,2.01,0,1,1,2.01-2.01A2.01,2.01,0,0,1,6.031,8.041Zm3.22-5.953a.724.724,0,1,0,.723.724A.724.724,0,0,0,9.251,2.088Z" fill="#fff"/>
</svg>
