<svg id="Group_98" data-name="Group 98" xmlns="http://www.w3.org/2000/svg" xmlns:xlink="http://www.w3.org/1999/xlink" width="46.158" height="50.636" viewBox="0 0 46.158 50.636">
  <defs>
    <clipPath id="clip-path">
      <rect id="Rectangle_136" data-name="Rectangle 136" width="46.158" height="50.636" fill="#fff"/>
    </clipPath>
  </defs>
  <g id="Group_97" data-name="Group 97" clip-path="url(#clip-path)">
    <path id="Path_1212" data-name="Path 1212" d="M31.978,15.928a8.9,8.9,0,1,0-8.9,8.9,8.91,8.91,0,0,0,8.9-8.9m-14.635,0a5.735,5.735,0,1,1,5.735,5.735,5.742,5.742,0,0,1-5.735-5.735M22.1,41.591a1.583,1.583,0,0,0,1.967,0c7.194-5.707,14.936-16.172,14.936-25.663a15.928,15.928,0,0,0-31.857,0c0,4.464,1.709,9.488,4.94,14.528A47.467,47.467,0,0,0,22.1,41.591Zm.976-38.426A12.777,12.777,0,0,1,35.841,15.928c0,7.678-6.264,16.84-12.756,22.375-6.327-5.382-12.77-14.36-12.77-22.375A12.778,12.778,0,0,1,23.078,3.165M46.158,42.273c0,1.811-1.284,4.374-7.4,6.3a54.247,54.247,0,0,1-15.677,2.059A54.235,54.235,0,0,1,7.4,48.577c-6.118-1.93-7.4-4.493-7.4-6.3,0-3.116,3.745-5.648,10.544-7.128a1.582,1.582,0,1,1,.674,3.092c-5.867,1.277-8.053,3.153-8.053,4.036,0,.57,1.085,1.99,5.19,3.285a51.052,51.052,0,0,0,14.724,1.913A51.065,51.065,0,0,0,37.8,45.559c4.105-1.295,5.19-2.715,5.19-3.285,0-.883-2.187-2.759-8.053-4.037a1.582,1.582,0,0,1,.674-3.092c6.8,1.48,10.544,4.012,10.544,7.128Z" fill="#fff"/>
  </g>
</svg>
