<svg xmlns="http://www.w3.org/2000/svg" xmlns:xlink="http://www.w3.org/1999/xlink" width="40" height="40" viewBox="0 0 40 40"><defs><clipPath id="a"><rect width="40" height="40" transform="translate(-18734 -8037)"/></clipPath><clipPath id="b"><rect width="28.411" height="30" fill="#fff" stroke="#fff" stroke-width="0.25"/></clipPath></defs><g transform="translate(18734 8037)" clip-path="url(#a)"><g transform="translate(-18720.262 -8027.87)"><g transform="translate(-7.943 -4.118)"><g clip-path="url(#b)"><path d="M19.268,3.89c0,.38,0,.726,0,1.073,0,.369-.115.479-.481.48q-1.714,0-3.429,0c-.379,0-.5-.119-.5-.5,0-.338,0-.675,0-1.034H7.1c0,.346,0,.691,0,1.036s-.141.494-.485.495q-1.729,0-3.458,0c-.329,0-.464-.143-.468-.477s0-.693,0-1.035a1.505,1.505,0,0,0-1.973,1.6c.033.4.006.8.005,1.194,0,.2,0,.4,0,.6,0,.234-.119.39-.358.389S.009,7.548.009,7.314c0-.717-.021-1.435.008-2.151A2.113,2.113,0,0,1,2.034,3.177c.207-.008.414,0,.657,0,0-.318,0-.614,0-.909A2.207,2.207,0,1,1,7.1,2.272c0,.287,0,.574,0,.881h7.753c0-.313,0-.619,0-.925a2.2,2.2,0,1,1,4.41,0c.005.3,0,.6,0,.945.192,0,.376,0,.559,0a2.132,2.132,0,0,1,2.183,2.195q.006,5.78,0,11.561v.4c.115-.109.189-.177.261-.248.8-.8,1.587-1.622,2.411-2.4a2.215,2.215,0,1,1,3,3.256C26,19.624,24.33,21.333,22.619,23A1.781,1.781,0,0,0,22,24.492c.055,1.083.018,2.17.014,3.255A2.155,2.155,0,0,1,19.755,30q-8.765,0-17.531,0A2.123,2.123,0,0,1,.008,27.779q0-8.872,0-17.744c0-.08-.025-.185.015-.233.092-.112.223-.279.329-.272.127.008.268.157.355.279.053.074.017.212.017.322q0,8.768,0,17.535A1.439,1.439,0,0,0,2.34,29.281H19.662A1.457,1.457,0,0,0,21.3,27.643q0-1.464,0-2.928v-.374c-.465.469-.9.863-1.278,1.3a3.451,3.451,0,0,1-1.572,1.014c-1.073.356-2.129.764-3.191,1.153-.183.067-.361.13-.526-.031s-.1-.346-.034-.527c.177-.483.353-.967.544-1.493H10.2c-.089,0-.209.03-.262-.015-.115-.1-.264-.233-.271-.36-.006-.106.157-.24.271-.327.058-.044.173-.014.262-.014,1.66,0,3.319-.005,4.979.005.23,0,.368-.04.423-.286A5.542,5.542,0,0,1,17.423,21.9c1.273-1.186,2.476-2.448,3.7-3.685a.6.6,0,0,0,.165-.382q.013-6.243.005-12.487a1.413,1.413,0,0,0-1.446-1.46c-.178,0-.356,0-.58,0m4.406,12.842-6.581,6.632.7.759,6.617-6.632-.732-.759M6.388,4.713c0-.848,0-1.663,0-2.477a1.49,1.49,0,1,0-2.979.012c0,.746,0,1.491,0,2.237,0,.076.013.151.02.228Zm9.185,0h2.98c0-.8,0-1.582,0-2.364a2.3,2.3,0,0,0-.011-.3A1.5,1.5,0,0,0,17.013.741a1.484,1.484,0,0,0-1.437,1.433c-.017.834,0,1.669,0,2.536M19.09,25.421l6.6-6.575-.7-.737-6.6,6.617.708.695m7.181-7.175a14.074,14.074,0,0,0,1.1-1.043,1.46,1.46,0,0,0-.062-1.916,1.432,1.432,0,0,0-1.867-.276,13.4,13.4,0,0,0-1.253,1.139l2.085,2.1M18.391,25.9l-1.784-1.8c-.13.357-.277.735-.4,1.121a.309.309,0,0,0,.074.25c.243.262.5.515.758.761a.279.279,0,0,0,.222.076c.394-.129.783-.276,1.132-.4m-2.515.191-.292.837.818-.308-.526-.528" transform="translate(0 0.001)" fill="#fff"/><path d="M11.112,30.183l-8.859,0a2.27,2.27,0,0,1-2.37-2.373q0-7.1,0-14.206V10.065c0-.018,0-.038,0-.058a.362.362,0,0,1,.053-.274l.014-.017C.061,9.577.2,9.4.374,9.4H.391a.745.745,0,0,1,.47.343.475.475,0,0,1,.051.326c0,.031-.005.061-.005.086q0,5.6,0,11.2v6.332a1.285,1.285,0,0,0,1.462,1.462H19.692a1.3,1.3,0,0,0,1.479-1.484q0-1.011,0-2.021v-.908L21,24.906c-.3.294-.583.571-.841.866a3.578,3.578,0,0,1-1.64,1.059c-.784.26-1.573.553-2.336.836q-.425.158-.851.315a1,1,0,0,1-.341.08.483.483,0,0,1-.347-.146.578.578,0,0,1-.073-.685l.4-1.09.073-.2H10.233c-.021,0-.045,0-.068,0s-.064.006-.1.006a.3.3,0,0,1-.2-.062.76.76,0,0,1-.325-.469c-.01-.173.154-.323.332-.459a.317.317,0,0,1,.193-.056c.033,0,.065,0,.1.006s.046,0,.067,0h2.423c1.028,0,1.817,0,2.557.007h.009c.2,0,.232-.033.262-.165a5.764,5.764,0,0,1,1.863-2.935c.969-.9,1.915-1.868,2.829-2.8q.433-.441.866-.881a.455.455,0,0,0,.12-.274c.008-3.768.009-7.735.005-12.486a1.256,1.256,0,0,0-1.294-1.305h-.423q0,.1,0,.191c0,.252,0,.49,0,.73,0,.455-.183.632-.636.633q-1.715,0-3.429,0c-.462,0-.652-.189-.656-.651,0-.234,0-.468,0-.709q0-.085,0-.172H7.288q0,.081,0,.162c0,.236,0,.481,0,.721a.57.57,0,0,1-.639.648q-1.73,0-3.459,0A.555.555,0,0,1,2.567,5c0-.243,0-.488,0-.725q0-.09,0-.18a1.465,1.465,0,0,0-1.328.392A1.389,1.389,0,0,0,.9,5.541a7.959,7.959,0,0,1,.011.838c0,.123-.005.246-.005.37q0,.086,0,.173c0,.14,0,.284,0,.427a.494.494,0,0,1-.51.54.493.493,0,0,1-.512-.546c0-.2,0-.4,0-.595,0-.512-.009-1.041.012-1.562A2.255,2.255,0,0,1,2.057,3.052c.07,0,.146,0,.237,0l.272,0V2.9c0-.207,0-.407,0-.607A2.349,2.349,0,0,1,4.914-.126h.009A2.355,2.355,0,0,1,7.287,2.3c0,.2,0,.39,0,.591v.136h7.443q0-.071,0-.142c0-.207,0-.421,0-.631a2.36,2.36,0,0,1,4.719,0c0,.2,0,.408,0,.624q0,.083,0,.168h.406A2.28,2.28,0,0,1,22.194,5.4c0,2.78,0,5.607,0,8.34V17q.376-.375.748-.754c.539-.546,1.1-1.11,1.664-1.646a2.346,2.346,0,0,1,3.927,1.215,2.338,2.338,0,0,1-.709,2.263c-.536.537-1.08,1.084-1.6,1.614-1.128,1.138-2.295,2.314-3.463,3.45a1.621,1.621,0,0,0-.577,1.376c.04.8.031,1.61.022,2.4,0,.29-.007.579-.008.868a2.309,2.309,0,0,1-2.41,2.4ZM.184,9.914c0,.017,0,.047,0,.068s0,.057,0,.083V13.6q0,7.1,0,14.206a1.974,1.974,0,0,0,2.061,2.063q8.765,0,17.531,0a1.992,1.992,0,0,0,2.1-2.1c0-.29,0-.581.008-.871.009-.78.018-1.587-.022-2.376a1.943,1.943,0,0,1,.67-1.613c1.166-1.134,2.332-2.31,3.459-3.446.526-.53,1.069-1.078,1.606-1.615a2.06,2.06,0,1,0-2.787-3.034c-.564.532-1.119,1.094-1.656,1.638q-.375.38-.752.758c-.048.048-.1.095-.16.153l-.1.1-.261.248v-3.98c0-2.733,0-5.56,0-8.34a1.981,1.981,0,0,0-2.03-2.04h-.712V3.2c0-.113,0-.22,0-.325,0-.215,0-.418,0-.618a2.05,2.05,0,1,0-4.1,0c0,.207,0,.41,0,.624q0,.148,0,.3v.155H6.978V2.892c0-.2,0-.394,0-.589A2.052,2.052,0,0,0,4.923.183H4.915A2.046,2.046,0,0,0,2.875,2.3c0,.2,0,.4,0,.6V3.36H2.721c-.154,0-.293,0-.427,0-.087,0-.158,0-.224,0A1.968,1.968,0,0,0,.2,5.2C.18,5.713.185,6.238.189,6.746c0,.2,0,.4,0,.6,0,.236.141.237.2.237.1,0,.2-.028.2-.237,0-.139,0-.282,0-.42q0-.087,0-.174C.6,6.624.6,6.5.6,6.373a7.728,7.728,0,0,0-.01-.805A1.7,1.7,0,0,1,1.01,4.273,1.661,1.661,0,0,1,2.273,3.76a2.574,2.574,0,0,1,.476.047l.126.024v.128q0,.156,0,.312c0,.236,0,.48,0,.721s.07.324.313.325q1.729.005,3.458,0c.257,0,.328-.074.33-.342,0-.239,0-.482,0-.717q0-.158,0-.317V3.786H15.04V3.94c0,.111,0,.22,0,.327,0,.24,0,.473,0,.705,0,.292.054.344.347.344q1.714,0,3.428,0c.281,0,.324-.043.327-.327,0-.238,0-.475,0-.726,0-.113,0-.228,0-.346V3.765h.736a1.57,1.57,0,0,1,1.6,1.614c0,4.751,0,8.719-.005,12.487a.762.762,0,0,1-.21.491q-.434.439-.865.88c-.917.935-1.865,1.9-2.839,2.81a5.347,5.347,0,0,0-1.772,2.776.492.492,0,0,1-.564.407h-.011c-.74,0-1.528-.007-2.555-.007H10.234c-.03,0-.062,0-.094-.005s-.047,0-.069,0h-.016c-.156.12-.191.175-.2.194s.049.1.2.232h.011c.022,0,.046,0,.07,0s.063-.006.095-.006h5.256l-.224.615-.4,1.086c-.072.2-.09.278,0,.363a.173.173,0,0,0,.131.058.773.773,0,0,0,.235-.061l.85-.314c.765-.284,1.557-.578,2.346-.84a3.281,3.281,0,0,0,1.5-.969c.265-.3.553-.585.857-.883.138-.136.281-.276.427-.423L21.48,24v1.656q0,1.011,0,2.021a1.615,1.615,0,0,1-1.788,1.793H2.369A1.584,1.584,0,0,1,.6,27.694V21.362q0-5.6,0-11.2c0-.038,0-.076.006-.112a.553.553,0,0,0,0-.123.554.554,0,0,0-.228-.209,1,1,0,0,0-.193.2Zm15.175,17.3.483-1.382.869.873Zm1.9-.727a.472.472,0,0,1-.295-.123c-.288-.272-.539-.524-.765-.768a.453.453,0,0,1-.108-.4c.094-.291.2-.577.3-.853l.1-.274.084-.229,2.126,2.15-.227.082-.256.094c-.284.1-.577.212-.88.311A.261.261,0,0,1,17.256,26.491ZM16.7,24.406l-.017.047c-.1.273-.206.555-.3.84a.208.208,0,0,0,.041.1c.222.239.468.486.751.754a.187.187,0,0,0,.078.038c.294-.1.581-.2.859-.3l.031-.011Zm2.423,1.262-.928-.911,6.827-6.84.915.961Zm-.489-.913.487.478L25.5,18.872l-.488-.513Zm-.817-.378-.905-.987,6.8-6.849.947.982Zm-.478-.979.487.531,6.4-6.41-.517-.536ZM26.3,18.491l-2.3-2.316.118-.109c.122-.113.246-.235.366-.353a7.672,7.672,0,0,1,.9-.8,1.425,1.425,0,0,1,.834-.262,1.693,1.693,0,0,1,1.238.561,1.613,1.613,0,0,1,.064,2.12,7.93,7.93,0,0,1-.764.744c-.114.1-.232.206-.343.311Zm-1.86-2.307L26.3,18.06c.08-.073.16-.144.239-.214a7.7,7.7,0,0,0,.735-.714,1.3,1.3,0,0,0-.059-1.712,1.379,1.379,0,0,0-1.008-.458,1.117,1.117,0,0,0-.654.2,7.439,7.439,0,0,0-.865.768C24.609,16.016,24.523,16.1,24.437,16.183ZM6.572,4.9H3.317L3.3,4.757c0-.023,0-.046-.008-.069a1.48,1.48,0,0,1-.013-.173v-.4c0-.6,0-1.222,0-1.834A1.636,1.636,0,0,1,4.92.591h0A1.632,1.632,0,0,1,6.571,2.265c0,.563,0,1.116,0,1.7q0,.385,0,.778ZM3.6,4.588H6.263q0-.315,0-.624c0-.584,0-1.136,0-1.7A1.329,1.329,0,0,0,4.925.9V.745l0,.155A1.318,1.318,0,0,0,3.592,2.279c0,.61,0,1.231,0,1.831v.4C3.592,4.538,3.593,4.563,3.6,4.588Zm15.141.305H15.448V4.739q0-.4,0-.786c0-.6-.006-1.172.007-1.753A1.645,1.645,0,0,1,17.036.616a1.665,1.665,0,0,1,1.688,1.441,2.1,2.1,0,0,1,.012.281v.037c0,.608,0,1.216,0,1.832Zm-2.98-.309h2.67V4.207c0-.616,0-1.224,0-1.832V2.337a1.837,1.837,0,0,0-.01-.24A1.351,1.351,0,0,0,17.05.925a1.335,1.335,0,0,0-1.289,1.281c-.012.577-.009,1.144-.006,1.745Q15.756,4.265,15.757,4.584Z" transform="translate(-0.03 -0.029)" fill="#fff"/><path d="M46.577,279.081c.6,0,1.192,0,1.788,0,.361,0,.476.118.477.486q0,1.821,0,3.643c0,.347-.12.469-.463.47q-1.833,0-3.665,0c-.342,0-.461-.123-.462-.471q0-1.821,0-3.643c0-.367.115-.483.478-.485.616,0,1.232,0,1.848,0m1.537.738H44.991v3.129h3.123Z" transform="translate(-40.726 -256.848)" fill="#fff"/><path d="M45.515,278.955H48.4c.447,0,.63.187.631.64,0,1.344,0,2.535,0,3.643,0,.431-.191.624-.617.624q-1.833,0-3.666,0c-.425,0-.615-.194-.616-.625,0-1.128,0-2.32,0-3.643,0-.452.184-.637.632-.639Zm1.092.31H44.76c-.275,0-.323.051-.324.331,0,1.323,0,2.514,0,3.642,0,.263.052.316.307.317q1.832,0,3.665,0c.256,0,.308-.054.308-.316,0-1.107,0-2.3,0-3.642,0-.281-.049-.33-.323-.331H46.607Zm-1.741.429H48.3v3.439H44.866Zm3.123.309H45.175v2.82h2.814Z" transform="translate(-40.755 -256.878)" fill="#fff"/><path d="M44.98,108.8v3.149h3.137c.005-.1-.024-.225.023-.293.087-.125.2-.281.336-.311a.3.3,0,0,1,.36.308,4.552,4.552,0,0,1,0,.686.343.343,0,0,1-.376.342c-1.271,0-2.542.006-3.813,0a.374.374,0,0,1-.4-.425c0-1.244,0-2.488,0-3.731a.4.4,0,0,1,.451-.437c1.013,0,2.026,0,3.039,0,.246,0,.419.107.42.358s-.172.36-.418.36c-.912,0-1.825,0-2.767,0" transform="translate(-40.727 -99.471)" fill="#fff"/><path d="M46.563,112.867c-.7,0-1.318,0-1.887-.005a.526.526,0,0,1-.549-.58q0-.513,0-1.026c0-.887,0-1.8,0-2.706a.553.553,0,0,1,.605-.591q.639,0,1.278,0h1.761a.507.507,0,0,1,.575.512.5.5,0,0,1-.136.361.6.6,0,0,1-.435.154H45.164v2.84h2.824a.368.368,0,0,1,.055-.227.817.817,0,0,1,.428-.374.459.459,0,0,1,.1-.012.465.465,0,0,1,.446.458,4.72,4.72,0,0,1,0,.709.5.5,0,0,1-.53.486Zm-.55-4.6q-.638,0-1.277,0c-.21,0-.3.083-.3.283,0,.9,0,1.818,0,2.7q0,.513,0,1.026c0,.238.129.27.242.27.568,0,1.184.005,1.885.005l1.927,0c.187,0,.217-.113.222-.2a4.415,4.415,0,0,0,0-.662c-.008-.094-.067-.194-.171-.171-.081.018-.2.183-.24.244a.526.526,0,0,0,0,.1,1.142,1.142,0,0,1,0,.118l-.008.147H44.855v-3.458h2.922a.311.311,0,0,0,.217-.063.191.191,0,0,0,.046-.142c0-.066,0-.2-.263-.2H46.013Z" transform="translate(-40.757 -99.501)" fill="#fff"/><path d="M44.979,194.3v3.085h3.134a2.741,2.741,0,0,1,.017-.285c.033-.206.169-.352.364-.3a.518.518,0,0,1,.327.309,2.093,2.093,0,0,1,.011.682c-.025.278-.225.339-.471.338-1.2,0-2.4,0-3.606,0-.03,0-.06,0-.089,0a.383.383,0,0,1-.416-.434c0-1.234,0-2.468,0-3.7a.352.352,0,0,1,.381-.4c1.053-.008,2.106-.006,3.159,0a.337.337,0,0,1,.373.372c-.01.234-.173.343-.406.342H44.979" transform="translate(-40.724 -178.158)" fill="#fff"/><path d="M48.4,198.307h-.005q-.853,0-1.705,0h-2a.536.536,0,0,1-.561-.588q0-1.022,0-2.045,0-.829,0-1.658a.507.507,0,0,1,.535-.553c.488,0,1.008-.005,1.592-.005q.784,0,1.568,0a.535.535,0,0,1,.4.154.525.525,0,0,1-.43.87H45.164v2.776h2.83a1.3,1.3,0,0,1,.014-.155.474.474,0,0,1,.444-.443.459.459,0,0,1,.109.014.67.67,0,0,1,.44.421,2.211,2.211,0,0,1,.016.727v.007C48.989,198.146,48.781,198.307,48.4,198.307ZM46.687,198q.853,0,1.706,0l0,.155V198c.273,0,.3-.085.312-.2v-.007a1.955,1.955,0,0,0-.008-.624.374.374,0,0,0-.214-.2.151.151,0,0,0-.036,0c-.081,0-.125.1-.139.183a1.38,1.38,0,0,0-.012.177c0,.031,0,.062,0,.092l-.008.146H44.854v-3.395h2.931c.243,0,.249-.136.252-.195a.2.2,0,0,0-.045-.153.245.245,0,0,0-.175-.058q-.784,0-1.567,0c-.583,0-1.1,0-1.59.005-.162,0-.228.072-.228.244q0,.829,0,1.659,0,1.022,0,2.044c0,.2.067.267.272.28h1.979Z" transform="translate(-40.754 -178.188)" fill="#fff"/><path d="M125.773,143.991h-3.846c-.089,0-.209.031-.262-.015-.116-.1-.265-.232-.272-.359-.006-.106.163-.231.269-.331.033-.031.115-.012.174-.012h7.841c.069,0,.165-.021.2.015.105.1.258.226.258.342s-.147.249-.258.341c-.055.045-.172.018-.262.018h-3.846" transform="translate(-111.723 -131.855)" fill="#fff"/><path d="M121.791,144.185a.3.3,0,0,1-.2-.062.76.76,0,0,1-.327-.468c-.009-.161.132-.286.256-.4l.061-.055a.247.247,0,0,1,.173-.06c.021,0,.045,0,.067,0l.04,0h7.841l.048,0c.025,0,.05,0,.074,0a.269.269,0,0,1,.189.064l.039.037c.119.11.267.248.267.417s-.158.332-.314.46a.309.309,0,0,1-.2.062c-.029,0-.061,0-.092,0s-.045,0-.065,0h-7.692c-.021,0-.045,0-.068,0S121.825,144.185,121.791,144.185Zm-.01-.31h.01c.022,0,.046,0,.07,0s.063-.006.1-.006h7.692c.029,0,.059,0,.089,0s.046,0,.068,0h.018c.174-.146.188-.2.19-.213-.007-.04-.116-.141-.168-.19l-.019-.018-.049,0c-.024,0-.048,0-.07,0h-7.841c-.02,0-.042,0-.065,0l-.03,0-.041.037a.885.885,0,0,0-.151.156C121.586,143.679,121.63,143.745,121.781,143.875Z" transform="translate(-111.752 -131.885)" fill="#fff"/><path d="M125.568,228.791h-3.816c-.079,0-.159,0-.238,0a.356.356,0,0,1-.007-.711,2.047,2.047,0,0,1,.209,0h7.692c.06,0,.119,0,.179,0a.357.357,0,1,1,.007.713c-.079.007-.159,0-.238,0h-3.786" transform="translate(-111.515 -209.904)" fill="#fff"/><path d="M121.648,228.977c-.046,0-.083,0-.119,0a.51.51,0,0,1-.008-1.019,1.507,1.507,0,0,1,.17,0h7.848c.03,0,.059,0,.089,0a.511.511,0,0,1,.009,1.021c-.034,0-.071,0-.116,0h-7.737Zm-.017-.72a.766.766,0,0,0-.078,0c-.173.018-.2.1-.2.194s.021.192.206.21c.04,0,.1,0,.154,0h7.807c.036,0,.065,0,.091,0,.189-.016.214-.107.213-.2s-.028-.187-.218-.2c-.038,0-.077,0-.115,0H121.63Z" transform="translate(-111.545 -209.934)" fill="#fff"/><path d="M21.754,89.506c0,.876,0,1.752,0,2.627,0,.288-.142.462-.365.443-.276-.023-.352-.209-.351-.46,0-.955,0-1.911,0-2.866q0-1.164,0-2.329c0-.383.1-.546.351-.55s.364.169.364.537q0,1.3,0,2.6" transform="translate(-19.361 -79.491)" fill="#fff"/><path d="M21.449,92.763l-.044,0c-.226-.019-.495-.141-.493-.615,0-.69,0-1.393,0-2.072V88.608q0-.828,0-1.656c0-.172,0-.7.5-.7h.013c.19,0,.509.09.509.692q0,.989,0,1.978V90.3q0,.933,0,1.867C21.936,92.522,21.74,92.763,21.449,92.763Zm-.021-6.207h-.007c-.089,0-.2,0-.2.4q0,.828,0,1.656v1.466c0,.679,0,1.382,0,2.073,0,.266.094.3.209.305h.019c.16,0,.178-.2.178-.291q0-.933,0-1.866V88.916q0-.989,0-1.978C21.628,86.556,21.5,86.556,21.429,86.556Z" transform="translate(-19.391 -79.521)" fill="#fff"/><path d="M124.135,122.3h-2.5c-.343,0-.506-.121-.5-.365s.163-.351.485-.351h5.06c.325,0,.485.117.491.349s-.166.366-.5.367q-1.265,0-2.53,0" transform="translate(-111.483 -111.9)" fill="#fff"/><path d="M125.617,122.487h-3.953a.71.71,0,0,1-.528-.169.472.472,0,0,1-.128-.353c0-.188.091-.5.64-.5h5.061c.551,0,.641.313.646.5a.472.472,0,0,1-.128.35.717.717,0,0,1-.531.175Zm-1.452-.31h2.53a.453.453,0,0,0,.31-.081.16.16,0,0,0,.04-.127c0-.069,0-.2-.337-.2q-2.53,0-5.06,0c-.327,0-.329.13-.331.2a.166.166,0,0,0,.04.131c.034.035.115.076.308.076h2.5Z" transform="translate(-111.513 -111.929)" fill="#fff"/><path d="M124.164,207.051c-.863,0-1.727,0-2.59,0-.238,0-.413-.077-.438-.339-.022-.237.149-.378.456-.378q1.7,0,3.393,0c.566,0,1.131,0,1.7,0,.324,0,.485.119.489.352s-.164.363-.477.364c-.843,0-1.687,0-2.53,0" transform="translate(-111.485 -189.897)" fill="#fff"/><path d="M121.6,207.236h0c-.449,0-.568-.261-.589-.479a.465.465,0,0,1,.113-.367.651.651,0,0,1,.5-.181h5.091c.552,0,.64.316.643.5a.475.475,0,0,1-.131.35.676.676,0,0,1-.5.171H121.6Zm1.56-.718h-1.542a.369.369,0,0,0-.268.079.161.161,0,0,0-.034.13c.01.109.038.2.281.2v.155l0-.155h5.12a.4.4,0,0,0,.28-.078.169.169,0,0,0,.043-.128c0-.07,0-.2-.335-.2h-3.547Z" transform="translate(-111.515 -189.926)" fill="#fff"/><path d="M124.131,292.57c.863,0,1.726,0,2.59,0a.388.388,0,0,1,.437.277c.069.239-.116.438-.417.44-.814,0-1.627,0-2.441,0q-1.339,0-2.679,0c-.323,0-.483-.116-.489-.348s.158-.368.5-.368q1.25,0,2.5,0" transform="translate(-111.482 -269.263)" fill="#fff"/><path d="M125.68,293.473h-4.03c-.548,0-.638-.313-.643-.5a.472.472,0,0,1,.127-.356.7.7,0,0,1,.526-.171h3.917q.587,0,1.173,0a.537.537,0,0,1,.586.388.465.465,0,0,1-.071.416.607.607,0,0,1-.493.221Q126.226,293.473,125.68,293.473Zm-1.351-.31h1.351q.544,0,1.089,0a.309.309,0,0,0,.248-.1.158.158,0,0,0,.022-.146c-.029-.1-.087-.165-.283-.165-.4,0-.787,0-1.179,0H121.66a.451.451,0,0,0-.3.077.164.164,0,0,0-.039.132c0,.069.005.2.334.2h2.679Z" transform="translate(-111.512 -269.292)" fill="#fff"/><path d="M68,206.909c.492-.413.923-.778,1.358-1.139.248-.206.447-.216.6-.038s.109.375-.137.584q-.738.626-1.482,1.246c-.274.228-.419.22-.666-.024-.205-.2-.409-.405-.61-.612a.357.357,0,1,1,.507-.5c.146.148.278.309.432.483" transform="translate(-61.596 -189.227)" fill="#fff"/><path d="M68.036,207.911a.657.657,0,0,1-.442-.233c-.242-.238-.437-.434-.612-.615a.491.491,0,0,1-.017-.744.5.5,0,0,1,.352-.156.557.557,0,0,1,.393.184c.1.1.2.215.3.331l.039.045.314-.264c.323-.271.625-.526.929-.778a.72.72,0,0,1,.453-.2.465.465,0,0,1,.362.181c.1.117.282.431-.156.8-.579.491-1.05.887-1.483,1.247A.706.706,0,0,1,68.036,207.911Zm-.719-1.439a.2.2,0,0,0-.136.068c-.07.069-.122.159.022.308.174.179.367.373.607.61.1.1.171.144.225.144a.443.443,0,0,0,.234-.129c.432-.359.9-.755,1.481-1.245.25-.212.165-.312.119-.366a.159.159,0,0,0-.126-.071.433.433,0,0,0-.255.128c-.3.252-.605.506-.927.777l-.545.458-.1-.112-.141-.161c-.1-.112-.189-.218-.286-.316A.27.27,0,0,0,67.317,206.472Z" transform="translate(-61.626 -189.257)" fill="#fff"/><path d="M68.082,122.107c.489-.411.921-.775,1.354-1.137.241-.2.45-.215.6-.042s.112.377-.131.584q-.748.635-1.5,1.262a.4.4,0,0,1-.643-.03q-.308-.3-.609-.611a.343.343,0,0,1-.024-.527.339.339,0,0,1,.525.021c.147.147.278.308.432.48" transform="translate(-61.674 -111.184)" fill="#fff"/><path d="M68.116,123.108a.649.649,0,0,1-.437-.225c-.228-.224-.428-.425-.611-.614a.522.522,0,0,1,.332-.9.555.555,0,0,1,.39.182c.1.1.2.214.3.33l.038.044.315-.265c.32-.27.621-.523.923-.775a.727.727,0,0,1,.456-.2.466.466,0,0,1,.359.174.48.48,0,0,1,.126.353.681.681,0,0,1-.274.45c-.507.431-1.013.856-1.5,1.263A.647.647,0,0,1,68.116,123.108Zm-.716-1.433a.2.2,0,0,0-.135.069c-.069.069-.12.161.025.31.181.187.38.386.606.608.124.122.185.136.22.136a.394.394,0,0,0,.216-.115c.489-.407.994-.831,1.5-1.261a.413.413,0,0,0,.166-.238.166.166,0,0,0-.052-.127.157.157,0,0,0-.125-.066.428.428,0,0,0-.257.126c-.3.252-.6.505-.922.774l-.546.459-.1-.112-.14-.159c-.1-.112-.189-.217-.286-.314A.268.268,0,0,0,67.4,121.675Z" transform="translate(-61.704 -111.213)" fill="#fff"/><path d="M21.412,69.873a.37.37,0,0,1,.358.422c0,.25-.157.426-.372.406a.357.357,0,0,1-.343-.405.371.371,0,0,1,.357-.423" transform="translate(-19.378 -64.307)" fill="#fff"/><path d="M21.461,70.887l-.048,0a.509.509,0,0,1-.483-.558.6.6,0,0,1,.16-.436.507.507,0,0,1,.706,0,.6.6,0,0,1,.159.436A.517.517,0,0,1,21.461,70.887Zm-.019-.83a.18.18,0,0,0-.133.051.3.3,0,0,0-.07.217c0,.193.082.241.2.252h.019c.125,0,.182-.128.184-.255a.3.3,0,0,0-.069-.215A.18.18,0,0,0,21.442,70.057Z" transform="translate(-19.407 -64.336)" fill="#fff"/></g></g></g></g></svg>