<svg xmlns="http://www.w3.org/2000/svg" xmlns:xlink="http://www.w3.org/1999/xlink" width="39.255" height="39.546" viewBox="0 0 39.255 39.546">
  <defs>
    <clipPath id="clip-path">
      <rect id="Rectangle_14208" data-name="Rectangle 14208" width="39.255" height="39.546" fill="#fff"/>
    </clipPath>
  </defs>
  <g id="Group_19" data-name="Group 19" transform="translate(0)">
    <g id="Group_18" data-name="Group 18" transform="translate(0)" clip-path="url(#clip-path)">
      <path id="Path_66302" data-name="Path 66302" d="M19.627,11.834A7.97,7.97,0,1,0,27.6,19.8,7.962,7.962,0,0,0,19.627,11.834Zm0,13.343A5.374,5.374,0,1,1,25,19.8a5.385,5.385,0,0,1-5.374,5.374m19.019-1.087-1.992-1.268a3.493,3.493,0,0,1-1.63-2.959V19.8a3.419,3.419,0,0,1,1.63-2.959l1.992-1.268a1.273,1.273,0,0,0,.423-1.751L34.541,6.038a1.222,1.222,0,0,0-1.691-.483l-1.993.966a3.526,3.526,0,0,1-1.57.362A4.106,4.106,0,0,1,27.416,6.4l-.06-.06a3.5,3.5,0,0,1-1.811-2.9l-.121-2.234A1.307,1.307,0,0,0,24.156,0H15.1a1.264,1.264,0,0,0-1.268,1.207L13.71,3.441a3.493,3.493,0,0,1-1.811,2.9l-.06.06a3.473,3.473,0,0,1-1.872.483A3.526,3.526,0,0,1,8.4,6.52L6.4,5.494a1.259,1.259,0,0,0-1.69.483L.186,13.766a1.285,1.285,0,0,0,.423,1.751L2.6,16.785a3.493,3.493,0,0,1,1.63,2.959v.06A3.419,3.419,0,0,1,2.6,22.762L.609,24.03a1.273,1.273,0,0,0-.423,1.751l4.528,7.788a1.275,1.275,0,0,0,1.69.483L8.4,33.026a3.524,3.524,0,0,1,1.57-.362,4.106,4.106,0,0,1,1.872.483l.06.06a3.5,3.5,0,0,1,1.811,2.9l.121,2.234A1.307,1.307,0,0,0,15.1,39.546h9a1.264,1.264,0,0,0,1.268-1.207l.121-2.234a3.493,3.493,0,0,1,1.811-2.9l.121-.06a3.473,3.473,0,0,1,1.872-.483,3.524,3.524,0,0,1,1.57.362l1.992,1.026a1.259,1.259,0,0,0,1.691-.483l4.528-7.728a1.272,1.272,0,0,0-.423-1.751Zm-5.675,7.185-.905-.483a6.27,6.27,0,0,0-2.778-.664,6.443,6.443,0,0,0-3.14.845l-.06.06a6.011,6.011,0,0,0-3.079,5.011l-.06,1.026H16.367l-.061-.966a6.116,6.116,0,0,0-3.079-5.011l-.06-.06a6.442,6.442,0,0,0-3.14-.845,6.27,6.27,0,0,0-2.778.664l-.966.422L3.024,25.6,3.99,25a6.187,6.187,0,0,0,2.838-5.132V19.8A5.9,5.9,0,0,0,3.99,14.671l-.966-.6,3.26-5.676.906.483a6.27,6.27,0,0,0,2.778.664,6.443,6.443,0,0,0,3.14-.845l.06-.06a6.011,6.011,0,0,0,3.079-5.011l.06-1.026h6.521l.06,1.026a6.116,6.116,0,0,0,3.079,5.011l.06.06a6.442,6.442,0,0,0,3.14.845,6.27,6.27,0,0,0,2.778-.664l.906-.483,3.26,5.676-.966.6A6.187,6.187,0,0,0,32.306,19.8v.06A5.9,5.9,0,0,0,35.143,25l.966.6Z" transform="translate(0)" fill="#fff"/>
    </g>
  </g>
</svg>
