<?xml version="1.0" standalone="no"?>
<!DOCTYPE svg PUBLIC "-//W3C//DTD SVG 20010904//EN"
 "http://www.w3.org/TR/2001/REC-SVG-20010904/DTD/svg10.dtd">
<svg version="1.0" xmlns="http://www.w3.org/2000/svg"
 width="512.000000pt" height="512.000000pt" viewBox="0 0 512.000000 512.000000"
 preserveAspectRatio="xMidYMid meet">
<metadata>
Created by potrace 1.16, written by Peter Selinger 2001-2019
</metadata>
<g transform="translate(0.000000,512.000000) scale(0.100000,-0.100000)"
fill="#000" stroke="none">
<path d="M2240 5105 c-444 -55 -852 -220 -1220 -493 -150 -112 -400 -362 -512
-512 -276 -372 -439 -779 -494 -1230 -17 -148 -17 -472 0 -620 55 -451 218
-858 494 -1230 112 -150 362 -400 512 -512 372 -276 779 -439 1230 -494 148
-17 472 -17 620 0 451 55 858 218 1230 494 150 112 400 362 512 512 276 372
439 779 494 1230 17 148 17 472 0 620 -55 451 -218 858 -494 1230 -112 150
-362 400 -512 512 -372 276 -779 439 -1230 494 -143 17 -488 16 -630 -1z m637
-314 c996 -147 1767 -918 1914 -1914 26 -181 26 -453 0 -634 -147 -996 -918
-1767 -1914 -1914 -181 -26 -453 -26 -634 0 -996 147 -1767 918 -1914 1914
-26 181 -26 453 0 634 146 992 914 1763 1905 1913 173 26 468 26 643 1z"/>
<path d="M1726 4099 c-122 -18 -173 -52 -372 -252 -188 -189 -230 -245 -271
-362 -45 -125 -58 -246 -43 -396 44 -433 302 -910 717 -1324 371 -371 795
-622 1197 -707 76 -16 135 -21 241 -21 167 1 252 20 378 85 72 37 104 63 268
227 230 229 261 283 261 447 -1 158 -52 243 -285 471 -140 137 -175 166 -241
198 -66 33 -89 39 -162 43 -153 8 -235 -28 -379 -169 l-101 -98 -347 347 -346
347 98 101 c54 55 109 120 121 143 72 142 67 296 -15 437 -40 70 -366 393
-435 431 -88 49 -184 66 -284 52z m291 -482 c181 -179 195 -199 178 -264 -4
-17 -67 -89 -160 -183 -171 -174 -186 -199 -165 -280 10 -41 58 -91 493 -527
426 -426 487 -483 525 -493 82 -21 110 -5 277 160 83 81 160 153 172 159 30
15 69 14 101 -3 47 -25 341 -328 350 -361 18 -62 -1 -92 -162 -252 -173 -173
-224 -204 -356 -223 -387 -55 -1015 294 -1450 805 -322 380 -511 827 -470
1115 19 132 50 183 223 356 156 157 186 177 247 166 15 -3 91 -70 197 -175z"/>
</g>
</svg>
