<?xml version="1.0" encoding="utf-8"?>
<!-- Generator: Adobe Illustrator 22.0.1, SVG Export Plug-In . SVG Version: 6.00 Build 0)  -->
<svg version="1.1" id="Layer_1" xmlns="http://www.w3.org/2000/svg" xmlns:xlink="http://www.w3.org/1999/xlink" x="0px" y="0px"
	 viewBox="0 0 1022.4 228.3" style="enable-background:new 0 0 1022.4 228.3;" xml:space="preserve">
<style type="text/css">
	.st0{opacity:0.1;enable-background:new    ;}
	.st1{fill:#1B1464;}
	.st2{opacity:0.38;}
	.st3{fill:url(#SVGID_1_);}
	.st4{fill:#5CC100;}
	.st5{fill:url(#SVGID_2_);}
	.st6{fill:#089CDA;}
	.st7{fill:url(#SVGID_3_);}
	.st8{fill:#ED701B;}
	.st9{fill:url(#SVGID_4_);}
	.st10{fill:url(#SVGID_5_);}
	.st11{fill:#F2009F;}
	.st12{fill:#00C9F6;}
	.st13{fill:#6D6C6C;}
</style>
<g>
	<g>
		<g class="st0">
			<g>
				<path d="M146.2,195.2c7.4-1.4,11.1,2.1,9.7,4.4c-0.7,1.1-2.1,1.5-3.2,1.9c-26.8,6.7-50.1,6.9-64.5,0.5
					c-4.9-2.4-11.4-5.9-16.2-8.6C86.8,202.6,114.2,203.3,146.2,195.2"/>
				<path d="M156.1,204.3c6.4-1.3,9.9,0.8,8.8,2.3c-0.5,0.7-1.7,1.1-2.7,1.4c-18,4.5-34.1,5.5-46.1,3.1c-10.9-2.6-11.8-2.8-18.8-5.3
					C111,210.7,132.1,210.3,156.1,204.3"/>
				<path d="M165.5,209.2c4.2-0.9,7.1-0.6,7.8-0.1c-0.1,0.5-0.1,0.6-2.1,1.1c-7.5,1.9-14.6,3-21,3.4c-3.4,0.1-7.9,0.2-11.3,0.1
					c-3.5-0.2-8.1-0.5-11.6-0.9C139.9,213.9,149.6,213,165.5,209.2"/>
				<path d="M99.9,186.8c7.7,0.1,12.5,5.8,10.6,7.8c-0.6,0.6-1.7,0.8-2.5,0.9c-20.1,1.3-36.5-1.8-46.2-9.1c-4.1-3.4-9.5-8-13.3-11.7
					C58.2,184.2,76.6,188.3,99.9,186.8"/>
				<path d="M105.9,166.2c8.2-0.6,13,6.5,10,9.9c-0.9,1-2.1,1.3-3.1,1.6c-33.9,5.7-61.2,1.5-72.6-12.2l-3.3-4.1
					c-2.2-3.1-5.2-7.3-7.2-10.5C39.8,167.1,69,172.4,105.9,166.2"/>
				<path d="M129.9,135c9.6-2.1,13.1,7,9.8,11.4c-1.1,1.4-2.5,2-3.7,2.5c-54.5,17.4-101,14.1-112.4-9l-2.2-4.7
					c-1.5-3.7-3.5-8.6-4.8-12.3C25.2,148.7,73.2,153.1,129.9,135"/>
				<path d="M120.6,111.3c8.8-1.8,12.8,7.1,9.2,12.1c-1.1,1.5-2.5,2.1-3.6,2.6c-56.9,18.1-105,13.4-112.6-13.1
					c-0.1-0.3-0.2-0.7-0.3-1c-1.1-5.3-2.4-12.5-3.1-17.8C18.4,137.7,95.3,117.8,120.6,111.3"/>
				<path d="M112.5,87.3c8.2-1.7,11.9,7.5,8.4,12.4c-1,1.5-2.4,2.1-3.5,2.6c-54,17.2-99.7,12.8-106.9-12.5c-0.6-2.1-0.9-4.4-1-6.7
					c0.1-3.4,0-7.9,0.3-11.3l0.6-6.6c-0.4,3.6-0.2,7,0.7,10.3C18,99.4,61.3,103.6,112.5,87.3"/>
			</g>
		</g>
		<g>
			<path class="st1" d="M85,200.5c1,0.6,2,1.1,3.1,1.6C87.1,201.5,86.1,201,85,200.5z"/>
			<path class="st1" d="M115,210.8c0.4,0.1,0.7,0.2,1.1,0.2C115.7,211,115.4,210.9,115,210.8z"/>
			<path class="st1" d="M150.2,213.6c-1.6,0.1-3.5,0.1-5.4,0.1C146.6,213.7,148.4,213.7,150.2,213.6z"/>
			<path class="st1" d="M60.1,184.9c0.6,0.5,1.1,1,1.8,1.5C61.3,185.9,60.7,185.4,60.1,184.9z"/>
			<path class="st1" d="M39.5,164.6c0.2,0.3,0.4,0.6,0.7,0.9L39.5,164.6z"/>
			<path class="st1" d="M23.2,139.1c0.1,0.3,0.2,0.5,0.4,0.8L23.2,139.1z"/>
			<path class="st1" d="M13,110.1c0.1,0.5,0.2,1.1,0.3,1.6C13.2,111.2,13.1,110.7,13,110.1z"/>
			<g class="st2">
				<path d="M95.2,195.8c-5-17.7,17.4-43.7,52.4-63c4.4-3.3,1.4-8.8,0.3-10.1c-1-1.3-3.9-4.1-8.2-2.4
					c-39.1,21.6-64.2,50.6-58.6,70.4c2,7,7.7,12.1,16,15.1c10.4,3.4,11.6,3.8,17.8,5.1C104.6,208.5,97.4,203.5,95.2,195.8z"/>
				<path d="M118.2,200.6c-3-10.6,6.6-25.1,23.5-38.1c2.8-3.1-3.1-7.9-3.2-8c-3.6-2.7-7.2-5.4-23.6,13.2
					c-11.4,13-12.9,22.2-12.2,27.7c1.2,9.6,9.5,15.5,24.6,17.5c3.5,0.3,8.1,0.7,11.6,0.9c1.8,0,3.8,0,5.9,0
					C130.7,213.5,120.7,209.1,118.2,200.6z"/>
				<path d="M80.3,27c6.3-4.5,4.5-9.8,3.7-11c-6.4-9.2-43.8,25.4-44.2,25.8c-6.3,5.9-25.4,24-29.1,43.3c-0.5,2.6-0.5,6.2-0.5,8.9
					c0.7,4.8,1.7,11.1,2.7,16.2C8.8,86.3,36.6,53.2,80.3,27z"/>
				<path d="M44.5,29.1c4.7-4.6,4.3-9.6,3.9-10.7c-0.4-1.2-1.7-2.9-5-0.5c-19.1,16-31.2,32.9-32.9,47.3l-0.6,6.6
					C9.8,75.2,9.5,79.7,9.6,83C9.4,67.1,22.6,47.5,44.5,29.1z"/>
			</g>
			<linearGradient id="SVGID_1_" gradientUnits="userSpaceOnUse" x1="60.222" y1="143.4541" x2="164.3435" y2="143.4541">
				<stop  offset="0" style="stop-color:#97BF4D"/>
				<stop  offset="0.2786" style="stop-color:#009B1C"/>
				<stop  offset="0.8333" style="stop-color:#5CC100"/>
			</linearGradient>
			<path class="st3" d="M163.2,90c-0.9-1.5-3.4-4.7-8.7-3.2c-0.2,0.1-0.4,0.2-0.6,0.3c-58.8,24.6-100.4,66-92.8,92.6
				c1.6,5.7,5.4,10.2,10.8,13.6c3.8,2.2,8.7,4.9,13,7.1c-5.7-3.2-9.5-7.6-11.2-13.3c-7-24.6,31.4-63,85.9-85.8
				c0.2-0.1,0.4-0.2,0.6-0.2C167.1,97.4,163.2,90.1,163.2,90L163.2,90z"/>
			<path class="st4" d="M171.5,82.4c-2.9,5.2,1.5,13.4,7.9,11.8c4.5-1.7,5-6.9,3.9-10.1C181.2,78.3,174.3,77.3,171.5,82.4z"/>
			<path class="st4" d="M188,77.5c-3,5,0.6,13.5,6.6,12.5c4.3-1.3,5.2-6.5,4.3-9.7C197.4,74.2,190.9,72.6,188,77.5z"/>
			<linearGradient id="SVGID_2_" gradientUnits="userSpaceOnUse" x1="41.1586" y1="114.2777" x2="244.9216" y2="114.2777">
				<stop  offset="0" style="stop-color:#425A9A"/>
				<stop  offset="8.924708e-02" style="stop-color:#3668A7"/>
				<stop  offset="0.3116" style="stop-color:#1D84C3"/>
				<stop  offset="0.505" style="stop-color:#0D96D4"/>
				<stop  offset="0.6465" style="stop-color:#089CDA"/>
				<stop  offset="1" style="stop-color:#02D1FF"/>
			</linearGradient>
			<path class="st5" d="M239.1,44.3c-24.7-2.8-59.2,3.3-95.4,18.4C79.3,89.5,33.8,134.9,42.1,164c1.2,4.1,3.3,7.6,6.4,10.6
				c3.4,3.1,7.8,7.1,11.6,10.2c-3.4-3.1-5.9-6.8-7.1-11.1c-7.9-27.7,35.4-71,96.8-96.6c34.5-14.4,67.4-20.2,91-17.5
				c5-1.1,4.3-6.4,3.8-8.6C244.2,49.4,242.9,45.3,239.1,44.3z"/>
			<path class="st6" d="M257.8,55.5c-0.6-5.8-4.4-10.1-6.7-7.6c-2.7,2.9-1.1,12.8,3.2,14.6C257.3,63.2,258.1,58.8,257.8,55.5z"/>
			<linearGradient id="SVGID_3_" gradientUnits="userSpaceOnUse" x1="25.8589" y1="97.4894" x2="164.5912" y2="97.4894">
				<stop  offset="8.585858e-02" style="stop-color:#FF360E"/>
				<stop  offset="0.8939" style="stop-color:#FF7902"/>
			</linearGradient>
			<path class="st7" d="M139.4,52.7c6.8-2.9,13.6-5.4,20.3-7.6c8-3.6,3.8-11,3.8-11l0,0c-0.9-1.5-3.7-4.7-9.6-3.4
				c-6.8,2.3-13.7,4.9-20.7,7.8c-67.4,28.1-115,75.6-106.3,106.1c0.6,2.3,1.6,4.4,2.8,6.3c2.1,3.2,4.9,7.5,7.2,10.5l2.6,3.3
				c-1.8-2.4-3.2-5.1-4.1-8.1C26.9,126.7,73.5,80.3,139.4,52.7z"/>
			<path class="st8" d="M182.5,38.7c5.2-1.5,5.5-6.6,4.1-9.6c-2.9-6.4-11.7-7-13.9-1C170.9,33.3,175.8,39.9,182.5,38.7z"/>
			<path class="st8" d="M202.2,34.9c4.8-1,5.2-5.8,3.9-9v0c-2.7-6.5-10.9-7.9-12.9-2.3C191.4,28.6,195.9,35.5,202.2,34.9z"/>
			<path class="st8" d="M220.3,33.4c4.4-0.4,4.7-5.1,3.5-8.2c-2.3-6.2-9.3-8.7-11.5-4.2C210.2,25.3,214.4,33.2,220.3,33.4z"/>
			<linearGradient id="SVGID_4_" gradientUnits="userSpaceOnUse" x1="15.1461" y1="80.287" x2="118.0819" y2="80.287">
				<stop  offset="0" style="stop-color:#A10062"/>
				<stop  offset="1" style="stop-color:#E900AC"/>
			</linearGradient>
			<path class="st9" d="M21.9,135.6c0.3,1.2,0.8,2.4,1.3,3.5l-1.8-3.9c-1.6-3.6-3.4-8.6-4.8-12.3c-0.1-0.4-0.2-0.7-0.3-1.1
				c-8-28.2,31.8-70.8,91-99.4c5.8-2.2,8.6,0.6,9.6,1.9c0,0.1,4.6,6.8-3.6,11.6C53.8,64.5,13.8,107.3,21.9,135.6z"/>
			<linearGradient id="SVGID_5_" gradientUnits="userSpaceOnUse" x1="124.5601" y1="19.2043" x2="141.0246" y2="19.2043">
				<stop  offset="0" style="stop-color:#A10062"/>
				<stop  offset="1" style="stop-color:#E900AC"/>
			</linearGradient>
			<path class="st10" d="M135.9,26c5.7-2.5,5.9-7.6,4.2-10.4c-3.6-6-13.6-4.5-15.3,2.4C123.4,23.3,129,28.3,135.9,26z"/>
		</g>
	</g>
	<g>
		<path d="M302.1,21.7l0.7-0.7h46.6l0.7,0.7v9.6l-0.7,0.7h-35.7v28.8h33.6l0.6,0.7l-2.5,9.6l-0.8,0.7h-30.8V113l-0.7,0.7h-10.2
			l-0.7-0.7V21.7z"/>
		<path d="M368.9,21.7l0.7-0.7h24.6c7.3,0,14.5,1.2,20.3,4.8C421.3,30,426,37.3,426,48.3c0,25.6-27,26.8-27,26.8l3,3l16.2,19.4
			c2.3,2.7,5.8,5.8,11.1,5.8c0.6,0,1-0.1,1.5-0.1l0.6,0.7l-1.5,9.3l-0.8,0.7c-1,0.1-1.9,0.3-2.9,0.3c-9.5,0-15.9-8.2-18.4-11.4
			l-21.6-26.7l-1-0.5h-4.7V113l-0.7,0.7h-10.2l-0.7-0.7V21.7z M394,64.9c10.1,0,20.3-3.8,20.3-16.6c0-12.5-10.2-16.8-20.3-16.8
			h-13.5v33.4H394z"/>
		<path d="M443.9,21.7l0.7-0.7h48l0.7,0.7v9.6l-0.7,0.7h-37v27.5h32.2l0.6,0.7l-2.5,9.6l-0.8,0.7h-29.4v32.3h37.2l0.6,0.7l-1.4,9.6
			l-0.8,0.7h-46.4l-0.7-0.7V21.7z"/>
		<path d="M513.4,21.7l0.7-0.7h48l0.7,0.7v9.6l-0.7,0.7h-37v27.5h32.2l0.6,0.7l-2.5,9.6l-0.8,0.7H525v32.3h37.2l0.6,0.7l-1.4,9.6
			l-0.8,0.7h-46.4l-0.7-0.7V21.7z"/>
		<path d="M607,32h-25.7l-0.7-0.7v-9.6l0.7-0.7h64.8l0.6,0.7l-2.5,9.6l-0.8,0.7h-24.7V113l-0.7,0.7h-10.2L607,113V32z"/>
		<path d="M667,22.3l0.7-0.8l10.2-1.4l0.7,0.5V113l-0.7,0.7h-10.2L667,113V22.3z"/>
		<path d="M704.4,22.3l0.7-0.8l10.4-1.4l0.8,0.5l31.1,56.2l30.3-54.7l0.7-0.8l11.3-1.2l0.7,0.5V113l-0.7,0.7h-10.2l-0.4-0.7V40.5
			l-3.5,7.6l-22.4,39.8l-0.8,0.7h-10l-0.8-0.7L719.2,48l-3.2-7.6V113l-0.7,0.7h-10.2l-0.7-0.7V22.3z"/>
		<path d="M810.7,21.7l0.7-0.7h48l0.7,0.7v9.6l-0.7,0.7h-37v27.5h32.2l0.6,0.7l-2.5,9.6l-0.8,0.7h-29.4v32.3h37.2l0.6,0.7l-1.4,9.6
			l-0.8,0.7h-46.4l-0.7-0.7V21.7z"/>
		<path d="M880.2,21.7l0.7-0.7h24.6c7.3,0,14.5,1.2,20.3,4.8c6.8,4.3,11.5,11.5,11.5,22.5c0,25.6-27,26.8-27,26.8l3,3l16.2,19.4
			c2.3,2.7,5.8,5.8,11.1,5.8c0.6,0,1-0.1,1.5-0.1l0.6,0.7l-1.5,9.3l-0.8,0.7c-1,0.1-1.9,0.3-2.9,0.3c-9.5,0-15.9-8.2-18.4-11.4
			l-21.6-26.7l-1-0.5h-4.7V113l-0.7,0.7h-10.2l-0.7-0.7V21.7z M905.4,64.9c10.1,0,20.3-3.8,20.3-16.6c0-12.5-10.2-16.8-20.3-16.8
			h-13.5v33.4H905.4z"/>
		<path d="M954.6,106.2l5.7-7.7l1.2-0.1c4,3.4,12.9,6,18.9,6c9.8,0,18.1-4.3,18.1-15.8c0-22.1-41.3-12.4-41.3-42.6
			c0-16.5,12.7-26.4,27.6-26.4c13.8,0,22.5,5.6,23.8,6.9l0.1,1l-5.3,8l-1.1,0.1c-3.9-2.9-9.8-4.9-17-4.9c-11.1,0-16.3,6.3-16.3,15
			c0,20.6,41.3,11.1,41.3,42.9c0,20.6-16.4,26.9-30.4,26.9c-6.5,0-18-2.6-25.2-8.2L954.6,106.2z"/>
	</g>
	<path class="st11" d="M377.7,208.4h-84c-0.4,0-0.7-0.3-0.7-0.7v-3.3c0-0.4,0.3-0.7,0.7-0.7h84c0.4,0,0.7,0.3,0.7,0.7v3.3
		C378.3,208.1,378,208.4,377.7,208.4z"/>
	<path class="st8" d="M627.1,208.4H450c-0.4,0-0.7-0.3-0.7-0.7v-3.3c0-0.4,0.3-0.7,0.7-0.7h177.2c0.4,0,0.7,0.3,0.7,0.7v3.3
		C627.8,208.1,627.5,208.4,627.1,208.4z"/>
	<path class="st12" d="M825.9,208.4H695.5c-0.4,0-0.7-0.3-0.7-0.7v-3.3c0-0.4,0.3-0.7,0.7-0.7h130.4c0.4,0,0.7,0.3,0.7,0.7v3.3
		C826.6,208.1,826.3,208.4,825.9,208.4z"/>
	<path class="st4" d="M1003.6,208.4H900.2c-0.4,0-0.7-0.3-0.7-0.7v-3.3c0-0.4,0.3-0.7,0.7-0.7h103.5c0.4,0,0.7,0.3,0.7,0.7v3.3
		C1004.3,208.1,1004,208.4,1003.6,208.4z"/>
	<g>
		<path class="st13" d="M460.3,170.1c0,2.5-0.6,4.4-1.7,5.5c-1.2,1.2-2.9,1.8-5.1,1.8h-1.7v10.1h-1.6v-24.4h3.3
			c2.4,0,4.1,0.6,5.2,1.7C459.8,165.9,460.3,167.7,460.3,170.1z M451.7,175.9h1.6c1.9,0,3.3-0.4,4.1-1.4c0.8-0.9,1.2-2.4,1.2-4.5
			c0-2-0.4-3.4-1.2-4.2c-0.8-0.9-2.1-1.3-3.8-1.3h-1.8V175.9z"/>
		<path class="st13" d="M465.8,176.9v10.7h-1.6v-24.4h3.3c2.4,0,4.1,0.6,5.2,1.7c1.1,1.1,1.7,2.8,1.7,5c0,1.7-0.3,3.1-0.9,4.2
			c-0.6,1.1-1.6,1.9-3,2.5l4.8,11h-1.8l-4.6-10.7H465.8z M465.8,175.3h2.3c1.5,0,2.6-0.5,3.4-1.4c0.8-0.9,1.2-2.3,1.2-4.1
			c0-1.8-0.4-3.2-1.2-4c-0.8-0.8-2.1-1.2-3.9-1.2h-1.8V175.3z"/>
		<path class="st13" d="M491.9,175.3c0,4-0.6,7.1-1.8,9.3c-1.2,2.2-3,3.3-5.2,3.3c-2.3,0-4-1.1-5.2-3.3c-1.2-2.2-1.8-5.3-1.8-9.3
			c0-4.2,0.6-7.3,1.8-9.4s2.9-3.1,5.3-3.1c2.3,0,4,1.1,5.2,3.2C491.3,168.2,491.9,171.3,491.9,175.3z M479.5,175.3
			c0,3.6,0.5,6.4,1.4,8.2c0.9,1.9,2.2,2.8,4,2.8c1.7,0,3.1-0.9,4-2.8c0.9-1.8,1.4-4.6,1.4-8.2c0-3.6-0.4-6.3-1.3-8.2
			c-0.9-1.8-2.2-2.8-4-2.8c-1.8,0-3.1,0.9-4,2.8C480,169,479.5,171.7,479.5,175.3z"/>
		<path class="st13" d="M504.4,175.2h5.3v11.5c-1.9,0.7-3.8,1.1-5.8,1.1c-2.7,0-4.7-1.1-6.2-3.3c-1.5-2.2-2.2-5.3-2.2-9.3
			c0-4,0.8-7,2.3-9.2c1.5-2.2,3.7-3.3,6.4-3.3c1.8,0,3.6,0.5,5.2,1.6l-0.8,1.4c-1.5-1-3-1.5-4.4-1.5c-2.3,0-4,0.9-5.2,2.8
			c-1.2,1.9-1.8,4.6-1.8,8.2c0,3.5,0.6,6.2,1.8,8.1c1.2,1.9,2.9,2.9,5,2.9c1.6,0,2.9-0.2,4-0.6v-8.9h-3.7V175.2z"/>
		<path class="st13" d="M516,176.9v10.7h-1.6v-24.4h3.3c2.4,0,4.1,0.6,5.2,1.7s1.7,2.8,1.7,5c0,1.7-0.3,3.1-0.9,4.2
			c-0.6,1.1-1.6,1.9-3,2.5l4.8,11h-1.8l-4.6-10.7H516z M516,175.3h2.3c1.5,0,2.6-0.5,3.4-1.4c0.8-0.9,1.2-2.3,1.2-4.1
			c0-1.8-0.4-3.2-1.2-4c-0.8-0.8-2.1-1.2-3.9-1.2H516V175.3z"/>
		<path class="st13" d="M538.1,187.5l-2.2-8.8H530l-2.1,8.8h-1.7l5.9-24.4h1.7l6,24.4H538.1z M535.5,177l-2.2-9.1
			c-0.2-1-0.4-2-0.5-2.9c-0.1,1-0.3,1.9-0.5,2.9l-2.1,9.1H535.5z"/>
		<path class="st13" d="M550.4,187.5l-6.5-22.2h-0.1c0.1,2.3,0.2,3.8,0.2,4.4v17.8h-1.6v-24.4h2.4l5.5,18.7c0.5,1.6,0.8,3,1,4.2h0.1
			c0.1-0.8,0.5-2.2,1-4.2l5.4-18.7h2.5v24.4h-1.6v-17.6c0-0.7,0.1-2.2,0.2-4.5h-0.1l-6.5,22.2H550.4z"/>
		<path class="st13" d="M573.7,187.5l-6.5-22.2h-0.1c0.1,2.3,0.2,3.8,0.2,4.4v17.8h-1.6v-24.4h2.4l5.5,18.7c0.5,1.6,0.8,3,1,4.2h0.1
			c0.1-0.8,0.5-2.2,1-4.2l5.4-18.7h2.5v24.4H582v-17.6c0-0.7,0.1-2.2,0.2-4.5H582l-6.5,22.2H573.7z"/>
		<path class="st13" d="M589,187.5v-24.4h1.6v24.4H589z"/>
		<path class="st13" d="M608.8,187.5h-2.1l-9.2-21.9h-0.1c0.1,1.5,0.2,3,0.2,4.4v17.5h-1.6v-24.4h2.1l9.2,21.6h0.1
			c-0.1-1.8-0.1-3.3-0.1-4.6v-17h1.6V187.5z"/>
		<path class="st13" d="M622.1,175.2h5.3v11.5c-1.9,0.7-3.8,1.1-5.8,1.1c-2.7,0-4.7-1.1-6.2-3.3c-1.5-2.2-2.2-5.3-2.2-9.3
			c0-4,0.8-7,2.3-9.2c1.5-2.2,3.7-3.3,6.4-3.3c1.8,0,3.6,0.5,5.2,1.6l-0.8,1.4c-1.5-1-3-1.5-4.4-1.5c-2.3,0-4,0.9-5.2,2.8
			c-1.2,1.9-1.8,4.6-1.8,8.2c0,3.5,0.6,6.2,1.8,8.1c1.2,1.9,2.9,2.9,5,2.9c1.6,0,2.9-0.2,4-0.6v-8.9h-3.7V175.2z"/>
	</g>
	<g>
		<path class="st13" d="M308.5,175.1c0,8.3-2.6,12.4-7.8,12.4h-4.3v-24.4h4.4c2.5,0,4.4,1,5.7,3
			C307.8,168.2,308.5,171.2,308.5,175.1z M306.7,175.2c0-3.4-0.5-6.1-1.5-7.9c-1-1.8-2.5-2.7-4.5-2.7H298V186h2.6
			c2.1,0,3.7-0.9,4.7-2.8C306.2,181.4,306.7,178.7,306.7,175.2z"/>
		<path class="st13" d="M321.8,187.5H313v-24.4h8.8v1.6h-7.2v9.3h6.8v1.6h-6.8v10.4h7.2V187.5z"/>
		<path class="st13" d="M335.5,181.1c0,2-0.6,3.6-1.7,4.9c-1.1,1.2-2.5,1.9-4.2,1.9c-1.9,0-3.5-0.3-4.7-0.9v-1.8
			c0.6,0.3,1.3,0.6,2.2,0.8c0.9,0.2,1.7,0.3,2.5,0.3c1.2,0,2.3-0.5,3.1-1.4c0.8-0.9,1.2-2.1,1.2-3.6c0-1.3-0.3-2.4-0.9-3.2
			c-0.6-0.8-1.7-1.6-3.3-2.4c-1.3-0.6-2.2-1.2-2.8-1.8c-0.6-0.6-1.1-1.3-1.4-2.1c-0.3-0.8-0.5-1.7-0.5-2.8c0-1.2,0.2-2.3,0.7-3.2
			c0.5-0.9,1.2-1.7,2.1-2.2c0.9-0.5,1.8-0.8,2.9-0.8c0.9,0,1.8,0.1,2.6,0.3c0.8,0.2,1.4,0.4,1.8,0.7l-0.6,1.6c-1.2-0.6-2.5-1-3.8-1
			c-1.2,0-2.2,0.4-2.9,1.2c-0.8,0.8-1.1,1.9-1.1,3.2c0,1.4,0.3,2.4,0.8,3.2c0.5,0.8,1.6,1.5,3.2,2.4c1.6,0.8,2.8,1.7,3.6,2.8
			C335.1,178.3,335.5,179.6,335.5,181.1z"/>
		<path class="st13" d="M339.6,187.5v-24.4h1.6v24.4H339.6z"/>
		<path class="st13" d="M354.6,175.2h5.3v11.5c-1.9,0.7-3.8,1.1-5.8,1.1c-2.7,0-4.7-1.1-6.2-3.3c-1.5-2.2-2.2-5.3-2.2-9.3
			c0-4,0.8-7,2.3-9.2c1.5-2.2,3.7-3.3,6.4-3.3c1.8,0,3.6,0.5,5.2,1.6l-0.8,1.4c-1.5-1-3-1.5-4.4-1.5c-2.3,0-4,0.9-5.2,2.8
			c-1.2,1.9-1.8,4.6-1.8,8.2c0,3.5,0.6,6.2,1.8,8.1c1.2,1.9,2.9,2.9,5,2.9c1.6,0,2.9-0.2,4-0.6v-8.9h-3.7V175.2z"/>
		<path class="st13" d="M377.4,187.5h-2.1l-9.2-21.9h-0.1c0.1,1.5,0.2,3,0.2,4.4v17.5h-1.6v-24.4h2.1l9.2,21.6h0.1
			c-0.1-1.8-0.1-3.3-0.1-4.6v-17h1.6V187.5z"/>
	</g>
	<g>
		<path class="st13" d="M702.8,188.1l-6.5-22.2h-0.1c0.1,2.3,0.2,3.8,0.2,4.4v17.8h-1.6v-24.4h2.4l5.5,18.7c0.5,1.6,0.8,3,1,4.2h0.1
			c0.1-0.8,0.5-2.2,1-4.2l5.4-18.7h2.5v24.4h-1.6v-17.6c0-0.7,0.1-2.2,0.2-4.5h-0.1l-6.5,22.2H702.8z"/>
		<path class="st13" d="M727.3,188.1l-2.2-8.8h-5.9l-2.1,8.8h-1.7l5.9-24.4h1.7l6,24.4H727.3z M724.8,177.6l-2.2-9.1
			c-0.2-1-0.4-2-0.5-2.9c-0.1,1-0.3,1.9-0.5,2.9l-2.1,9.1H724.8z"/>
		<path class="st13" d="M733.3,177.4v10.7h-1.6v-24.4h3.3c2.4,0,4.1,0.6,5.2,1.7s1.7,2.8,1.7,5c0,1.7-0.3,3.1-0.9,4.2
			c-0.6,1.1-1.6,1.9-3,2.5l4.8,11h-1.8l-4.6-10.7H733.3z M733.3,175.9h2.3c1.5,0,2.6-0.5,3.4-1.4c0.8-0.9,1.2-2.3,1.2-4.1
			c0-1.8-0.4-3.2-1.2-4c-0.8-0.8-2.1-1.2-3.9-1.2h-1.8V175.9z"/>
		<path class="st13" d="M757.3,188.1h-1.8l-5.7-12.2l-1.9,2.5v9.7h-1.6v-24.4h1.6v12.9c0.6-1.1,3-5.4,7.2-12.9h1.8l-6.1,10.7
			L757.3,188.1z"/>
		<path class="st13" d="M768.8,188.1h-8.8v-24.4h8.8v1.6h-7.2v9.3h6.8v1.6h-6.8v10.4h7.2V188.1z"/>
		<path class="st13" d="M777.1,188.1h-1.6v-22.8h-4.9v-1.6H782v1.6h-4.9V188.1z"/>
		<path class="st13" d="M784.9,188.1v-24.4h1.6v24.4H784.9z"/>
		<path class="st13" d="M804.8,188.1h-2.1l-9.2-21.9h-0.1c0.1,1.5,0.2,3,0.2,4.4v17.5h-1.6v-24.4h2.1l9.2,21.6h0.1
			c-0.1-1.8-0.1-3.3-0.1-4.6v-17h1.6V188.1z"/>
		<path class="st13" d="M818.1,175.8h5.3v11.5c-1.9,0.7-3.8,1.1-5.8,1.1c-2.7,0-4.7-1.1-6.2-3.3c-1.5-2.2-2.2-5.3-2.2-9.3
			c0-4,0.8-7,2.3-9.2c1.5-2.2,3.7-3.3,6.4-3.3c1.8,0,3.6,0.5,5.2,1.6l-0.8,1.4c-1.5-1-3-1.5-4.4-1.5c-2.3,0-4,0.9-5.2,2.8
			c-1.2,1.9-1.8,4.6-1.8,8.2c0,3.5,0.6,6.2,1.8,8.1c1.2,1.9,2.9,2.9,5,2.9c1.6,0,2.9-0.2,4-0.6v-8.9h-3.7V175.8z"/>
	</g>
	<g>
		<path class="st13" d="M911.5,181.1c0,2-0.6,3.6-1.7,4.9c-1.1,1.2-2.5,1.9-4.2,1.9c-1.9,0-3.5-0.3-4.7-0.9v-1.8
			c0.6,0.3,1.3,0.6,2.2,0.8c0.9,0.2,1.7,0.3,2.5,0.3c1.2,0,2.3-0.5,3.1-1.4c0.8-0.9,1.2-2.1,1.2-3.6c0-1.3-0.3-2.4-0.9-3.2
			c-0.6-0.8-1.7-1.6-3.3-2.4c-1.3-0.6-2.2-1.2-2.8-1.8c-0.6-0.6-1.1-1.3-1.4-2.1c-0.3-0.8-0.5-1.7-0.5-2.8c0-1.2,0.2-2.3,0.7-3.2
			c0.5-0.9,1.2-1.7,2.1-2.2c0.9-0.5,1.8-0.8,2.9-0.8c0.9,0,1.8,0.1,2.6,0.3c0.8,0.2,1.4,0.4,1.8,0.7l-0.6,1.6c-1.2-0.6-2.5-1-3.8-1
			c-1.2,0-2.2,0.4-2.9,1.2c-0.8,0.8-1.1,1.9-1.1,3.2c0,1.4,0.3,2.4,0.8,3.2c0.5,0.8,1.6,1.5,3.2,2.4c1.6,0.8,2.8,1.7,3.6,2.8
			C911.1,178.3,911.5,179.6,911.5,181.1z"/>
		<path class="st13" d="M919.6,187.5H918v-22.8h-4.9v-1.6h11.3v1.6h-4.9V187.5z"/>
		<path class="st13" d="M929.1,176.9v10.7h-1.6v-24.4h3.3c2.4,0,4.1,0.6,5.2,1.7s1.7,2.8,1.7,5c0,1.7-0.3,3.1-0.9,4.2
			c-0.6,1.1-1.6,1.9-3,2.5l4.8,11h-1.8l-4.6-10.7H929.1z M929.1,175.3h2.3c1.5,0,2.6-0.5,3.4-1.4c0.8-0.9,1.2-2.3,1.2-4.1
			c0-1.8-0.4-3.2-1.2-4c-0.8-0.8-2.1-1.2-3.9-1.2h-1.8V175.3z"/>
		<path class="st13" d="M951.2,187.5l-2.2-8.8h-5.9l-2.1,8.8h-1.7l5.9-24.4h1.7l6,24.4H951.2z M948.7,177l-2.2-9.1
			c-0.2-1-0.4-2-0.5-2.9c-0.1,1-0.3,1.9-0.5,2.9l-2.1,9.1H948.7z"/>
		<path class="st13" d="M959.6,187.5h-1.6v-22.8h-4.9v-1.6h11.3v1.6h-4.9V187.5z"/>
		<path class="st13" d="M976.2,187.5h-8.8v-24.4h8.8v1.6H969v9.3h6.8v1.6H969v10.4h7.2V187.5z"/>
		<path class="st13" d="M988.6,175.2h5.3v11.5c-1.9,0.7-3.8,1.1-5.8,1.1c-2.7,0-4.7-1.1-6.2-3.3c-1.5-2.2-2.2-5.3-2.2-9.3
			c0-4,0.8-7,2.3-9.2c1.5-2.2,3.7-3.3,6.4-3.3c1.8,0,3.6,0.5,5.2,1.6l-0.8,1.4c-1.5-1-3-1.5-4.4-1.5c-2.3,0-4,0.9-5.2,2.8
			c-1.2,1.9-1.8,4.6-1.8,8.2c0,3.5,0.6,6.2,1.8,8.1c1.2,1.9,2.9,2.9,5,2.9c1.6,0,2.9-0.2,4-0.6v-8.9h-3.7V175.2z"/>
		<path class="st13" d="M1001.5,175.7l4-12.6h1.7l-4.9,14.9v9.5h-1.6V178l-4.9-14.9h1.7L1001.5,175.7z"/>
	</g>
</g>
</svg>
